<svg xmlns="http://www.w3.org/2000/svg" width="50" height="50" viewBox="0 0 50 50"><rect width="100%" height="100%" fill="#DDDDDD"/><path fill="#999999" d="M13.81 21.84h.83v5.06h-.48q-.12 0-.19-.04-.08-.03-.15-.12l-2.64-3.38q.02.24.02.43v3.11h-.83v-5.06h.6q.04.01.08.03.03.01.06.04t.07.08l2.65 3.39q-.01-.13-.01-.24-.01-.12-.01-.22zm3.41 1.41q.4 0 .73.13.32.13.56.37.23.24.35.58.13.34.13.77 0 .42-.13.77-.12.34-.35.58-.24.24-.56.37-.33.13-.73.13t-.73-.13-.56-.37q-.24-.24-.36-.58-.13-.35-.13-.77 0-.43.13-.77.12-.34.36-.58.23-.24.56-.37t.73-.13m0 3.04q.45 0 .66-.3.22-.3.22-.89 0-.58-.22-.88-.21-.31-.66-.31-.46 0-.67.31-.22.31-.22.88 0 .58.22.88.21.31.67.31m5.21-4.45v5.06h-.94v-5.06zm1.86 5.06h-.86v-3.59h.53q.16 0 .22.16l.05.26q.1-.1.2-.19t.22-.15.25-.1q.14-.04.3-.04.34 0 .56.19.22.18.32.48.09-.17.21-.3.13-.13.28-.21t.32-.12.34-.04q.3 0 .53.09.23.1.39.27t.24.43q.08.25.08.57v2.29h-.86v-2.29q0-.34-.15-.51-.15-.18-.44-.18-.14 0-.25.05t-.2.13q-.09.09-.14.22-.04.13-.04.29v2.29h-.87v-2.29q0-.36-.15-.52-.14-.17-.42-.17-.19 0-.35.1-.17.09-.31.25zm6.9-.93v-.6q-.38.01-.63.06-.26.05-.41.12-.16.08-.22.17-.07.1-.07.22 0 .23.14.32.13.1.35.1.26 0 .46-.1.19-.09.38-.29m-1.83-1.88-.15-.28q.62-.57 1.49-.57.31 0 .56.11.25.1.42.28.17.19.26.44.09.26.09.56v2.27h-.39q-.12 0-.19-.04-.07-.03-.1-.15l-.08-.25q-.14.12-.27.21t-.27.16q-.14.06-.3.09-.16.04-.35.04-.23 0-.42-.07-.19-.06-.33-.18t-.22-.3q-.07-.19-.07-.43 0-.13.04-.27.05-.13.15-.26.1-.12.27-.23.16-.11.4-.19t.56-.13.73-.06v-.21q0-.36-.16-.53-.15-.18-.44-.18-.21 0-.35.05t-.24.11q-.11.07-.19.11-.09.05-.19.05-.09 0-.16-.04-.06-.05-.1-.11m4.8.93q.16 0 .28-.05.11-.04.19-.12.08-.07.12-.18t.04-.24q0-.27-.16-.42-.16-.16-.47-.16-.32 0-.48.16-.16.15-.16.42 0 .12.04.23t.12.19.2.12q.12.05.28.05m.97 2.04q0-.1-.06-.17t-.17-.1q-.11-.04-.26-.06-.14-.02-.3-.02l-.34-.02q-.17-.01-.34-.03-.14.08-.23.19t-.09.25q0 .1.05.18.04.08.15.14.1.06.27.09.16.04.4.04t.41-.04q.18-.04.29-.1.12-.07.17-.15.05-.09.05-.2m-.17-3.63h1.03v.32q0 .16-.18.19l-.32.06q.07.19.07.41 0 .26-.11.48-.1.21-.29.36-.19.16-.45.24t-.55.08q-.11 0-.21-.01t-.19-.03q-.17.1-.17.23 0 .11.1.16t.27.07q.16.02.37.03.21 0 .43.02t.43.06.38.14q.16.09.26.26.1.16.1.41 0 .24-.12.47-.11.22-.34.4-.22.17-.54.28-.33.1-.74.1t-.71-.08q-.3-.07-.5-.21-.2-.13-.29-.3-.1-.17-.1-.35 0-.26.15-.43t.42-.27q-.15-.07-.23-.19-.08-.13-.08-.33 0-.08.03-.16.03-.09.08-.17.06-.09.15-.16.09-.08.21-.14-.28-.14-.43-.39-.16-.24-.16-.57 0-.27.11-.48.1-.22.3-.37.19-.15.45-.23t.57-.08q.23 0 .43.04.2.05.37.14m2.26 1.26h1.63q0-.17-.04-.32-.05-.14-.15-.26-.09-.11-.24-.17-.14-.07-.33-.07-.38 0-.59.22-.22.21-.28.6m2.21.52H37.2q.03.28.1.48.08.2.21.33.12.13.29.2.18.06.39.06t.36-.05q.15-.04.27-.1l.2-.11q.08-.05.16-.05.11 0 .16.08l.25.31q-.14.17-.32.29-.18.11-.37.18-.2.07-.4.09-.2.03-.39.03-.37 0-.7-.12-.32-.13-.56-.37-.23-.24-.37-.6t-.14-.83q0-.37.12-.69.12-.33.34-.57.23-.24.55-.38t.72-.14q.34 0 .63.11.28.11.49.32t.32.51q.12.3.12.69 0 .2-.04.26-.04.07-.16.07"/></svg>